<?xml version="1.0" encoding="UTF-8"?>
<svg width="22px" height="22px" viewBox="0 0 22 22" version="1.1" xmlns="http://www.w3.org/2000/svg" xmlns:xlink="http://www.w3.org/1999/xlink">
    <!-- Generator: Sketch 52.4 (67378) - http://www.bohemiancoding.com/sketch -->
    <title>ACCOUNT</title>
    <desc>Created with Sketch.</desc>
    <g id="GCOX-确定版" stroke="none" stroke-width="1" fill="none" fill-rule="evenodd">
        <g id="MARKETS" transform="translate(-1059.000000, -29.000000)">
            <g id="ACCOUNT" transform="translate(1059.000000, 29.000000)">
                <rect id="矩形-copy-4" fill="#D8D8D8" fill-rule="nonzero" opacity="0" x="0" y="0" width="22" height="22"></rect>
                <path d="M11.4999904,12.2927896 C9.49189266,12.3000806 7.72731924,10.9641353 7.1917725,9.03107025 C6.65622576,7.09800521 7.48220425,5.04607609 9.20840452,4.02127154 C10.9346048,2.996467 13.1339511,3.25233183 14.5781234,4.64596725 C16.0222956,6.03960267 16.353994,8.22621216 15.3879673,9.98458901 C15.2072022,10.3046528 15.3204369,10.7104795 15.6408841,10.8910283 C15.9613314,11.0715771 16.3676443,10.9584778 16.5484094,10.6384141 C18.1088219,7.86899347 17.145246,4.36102807 14.3883735,2.77465279 C11.6315011,1.18827751 8.1098008,2.11529972 6.49382302,4.85274666 C4.87784524,7.59019359 5.77044071,11.1168433 8.4947429,12.7583922 C5.29112926,13.7688491 3,16.3346171 3,19.3362685 C3,19.7028373 3.29751872,20 3.66452667,20 C4.03153462,20 4.32905334,19.7028373 4.32905334,19.3362685 C4.32905334,16.195927 7.54258528,13.630159 11.4999904,13.630159 C15.4573954,13.630159 18.6709274,16.1860205 18.6709274,19.3362685 C18.6709274,19.7028373 18.9684461,20 19.3354541,20 C19.702462,20 19.9999807,19.7028373 19.9999807,19.3362685 C20.009899,15.452944 16.1913503,12.2927896 11.4999904,12.2927896 Z" id="路径" fill="#00A0E9"></path>
            </g>
        </g>
    </g>
</svg>