<?xml version="1.0" encoding="UTF-8"?>
<svg width="22px" height="22px" viewBox="0 0 22 22" version="1.1" xmlns="http://www.w3.org/2000/svg" xmlns:xlink="http://www.w3.org/1999/xlink">
    <!-- Generator: Sketch 52.4 (67378) - http://www.bohemiancoding.com/sketch -->
    <title>ACM</title>
    <desc>Created with Sketch.</desc>
    <g id="GCOX-确定版" stroke="none" stroke-width="1" fill="none" fill-rule="evenodd">
        <g id="MARKETS" transform="translate(-942.000000, -29.000000)" fill-rule="nonzero">
            <g id="ACM" transform="translate(942.000000, 29.000000)">
                <rect id="矩形-copy-2" fill="#D8D8D8" opacity="0" x="0" y="0" width="22" height="22"></rect>
                <path d="M10.5971012,2.67282172 C15.2915216,2.67282172 19.0971012,6.47840134 19.0971012,11.1728217 C19.0971012,15.8672421 15.2915216,19.6728217 10.5971012,19.6728217 C5.90268084,19.6728217 2.09710121,15.8672421 2.09710121,11.1728217 C2.09710121,6.47840134 5.90268084,2.67282172 10.5971012,2.67282172 Z M12.0535619,15.8406588 L16.0051068,15.8884116 L15.4678877,14.909479 L10.764236,6.25428239 L10.1315113,5.06046217 L8.86606189,5.06046217 L10.1315113,7.44810262 L11.4327754,9.83574307 L14.2024383,14.9214172 L12.8534214,14.9214172 L10.764236,11.0773161 L10.1315113,9.88349588 L9.462972,11.0773161 L7.40960121,14.8617262 L6.87238211,15.8406588 L8.13783155,15.8406588 L8.67505065,14.8617262 L10.0956967,12.2472599 L11.5163428,14.8617262 L12.0535619,15.8406588 Z" id="合并形状" fill="#FFFFFF"></path>
            </g>
        </g>
    </g>
</svg>