<?xml version="1.0" encoding="UTF-8"?>
<svg width="72px" height="70px" viewBox="0 0 72 70" version="1.1" xmlns="http://www.w3.org/2000/svg" xmlns:xlink="http://www.w3.org/1999/xlink">
    <!-- Generator: Sketch 49.2 (51160) - http://www.bohemiancoding.com/sketch -->
    <title>Group 3</title>
    <desc>Created with Sketch.</desc>
    <defs>
        <linearGradient x1="50%" y1="0%" x2="41.2920168%" y2="100%" id="linearGradient-1">
            <stop stop-color="#FAD961" offset="0%"></stop>
            <stop stop-color="#F76B1C" offset="100%"></stop>
        </linearGradient>
        <linearGradient x1="37.0411924%" y1="33.8097056%" x2="50%" y2="100%" id="linearGradient-2">
            <stop stop-color="#FAD961" offset="0%"></stop>
            <stop stop-color="#F76B1C" offset="100%"></stop>
        </linearGradient>
        <linearGradient x1="50%" y1="22.8664968%" x2="50%" y2="100%" id="linearGradient-3">
            <stop stop-color="#FAD961" offset="0%"></stop>
            <stop stop-color="#F76B1C" offset="100%"></stop>
        </linearGradient>
    </defs>
    <g id="香港-交易页" stroke="none" stroke-width="1" fill="none" fill-rule="evenodd">
        <g id="iPad-Copy" transform="translate(0.000000, -1.000000)" fill-rule="nonzero">
            <g id="Group-3" transform="translate(0.000000, 1.000000)">
                <g id="Group">
                    <g id="币有好货">
                        <path d="M64.9000363,45.3643411 C60.6896532,56.5426357 49.8937992,64.5736434 37.3706085,64.5736434 C21.1768275,64.5736434 7.89792701,51.3333333 7.89792701,34.9457364 C7.89792701,18.5581395 21.0688689,5.31782946 37.3706085,5.31782946 C51.0813431,5.31782946 62.6329069,14.8682171 65.8716632,27.6744186 C66.5194144,27.5658915 67.2751242,27.4573643 67.9228754,27.4573643 C69.2183779,27.4573643 70.4059218,27.6744186 71.4855072,28.2170543 C68.3547096,12.1550388 54.2121408,0 37.3706085,0 C18.1539883,1.80733981e-14 2.5,15.627907 2.5,34.9457364 C2.5,54.2635659 18.1539883,70 37.3706085,70 C52.9166383,70 66.0875802,59.6899225 70.5138804,45.5813953 C69.6502121,45.7984496 68.7865437,46.0155039 67.9228754,46.0155039 C66.84329,45.9069767 65.8716632,45.6899225 64.9000363,45.3643411 Z" id="Shape" fill="url(#linearGradient-1)" transform="translate(36.992754, 35.000000) scale(-1, 1) translate(-36.992754, -35.000000) "></path>
                        <path d="M0.34057971,36.5735295 C0.34057971,39.7004358 2.83870103,42.2352941 5.92028986,42.2352941 C9.00187868,42.2352941 11.5,39.7004358 11.5,36.5735295 C11.5000001,34.5507758 10.4365134,32.6816743 8.710145,31.6702974 C6.98377663,30.6589205 4.85680308,30.6589205 3.13043471,31.6702974 C1.40406635,32.6816743 0.340579626,34.5507758 0.34057971,36.5735295 Z" id="Shape" fill="#FF9300"></path>
                    </g>
                </g>
                <g id="Group-2" transform="translate(19.000000, 14.000000)">
                    <path d="M17.6209264,40.6407548 C26.7866532,40.6407548 34.2085526,33.2065053 34.2085526,24.0468283 C34.2085526,14.8871512 21.427574,25.4740338 19.5986818,0.167763158 C10.8582788,4.87541114 4.64855204,18.7427362 6.32858085,29.3509203 C8.00860966,39.9591045 17.6209264,40.6407548 17.6209264,40.6407548 Z" id="Shape" fill="url(#linearGradient-2)"></path>
                    <path d="M17.4914474,40.6407548 C26.7287196,40.6407548 34.2085526,33.3005119 34.2085526,24.2566596 C25.3141953,28.1476194 6.21811741,26.7805254 3.15331478,14.2453255 C2.10313765,19.2720248 1.39587551,17.820802 0.774342105,24.2566596 C0.774342105,33.3005119 8.2541751,40.6407548 17.4914474,40.6407548 Z" id="Shape" fill="url(#linearGradient-2)"></path>
                    <path d="M17.2963061,40.6407548 C26.6414064,40.6407548 34.2085526,33.2936245 34.2085526,24.2412863 C34.2085526,16.8310002 30.8694681,14.9363248 28.5711371,10.7259349 C26.9883243,28.8937671 11.5938434,31.9462998 0.774342105,27.8201177 C2.46556676,35.167248 9.23046539,40.6407548 17.2963061,40.6407548 Z" id="Shape" fill="url(#linearGradient-3)"></path>
                </g>
            </g>
        </g>
    </g>
</svg>