<?xml version="1.0" encoding="UTF-8"?>
<svg width="22px" height="22px" viewBox="0 0 22 22" version="1.1" xmlns="http://www.w3.org/2000/svg" xmlns:xlink="http://www.w3.org/1999/xlink">
    <!-- Generator: Sketch 52.4 (67378) - http://www.bohemiancoding.com/sketch -->
    <title>EXCHANGE</title>
    <desc>Created with Sketch.</desc>
    <g id="GCOX-确定版" stroke="none" stroke-width="1" fill="none" fill-rule="evenodd">
        <g id="MARKETS" transform="translate(-741.000000, -28.000000)">
            <g id="EXCHANGE" transform="translate(741.000000, 28.000000)">
                <rect id="矩形-copy" fill="#D8D8D8" fill-rule="nonzero" opacity="0" x="0" y="0" width="22" height="22"></rect>
                <path d="M19.1680825,5.59451813 L16.5442745,6.55728808 C16.2821756,6.65573284 15.9939936,6.51156853 15.900602,6.23528808 C15.8072104,5.95900763 15.9439748,5.65523284 16.2060737,5.55678808 L20.1881156,4.07328808 C20.3270895,4.01993812 20.4813121,4.03392553 20.6095981,4.11151493 C20.7378842,4.18910434 20.8271685,4.32239378 20.8536075,4.47578808 L21.6172868,8.54678808 C21.670821,8.83245044 21.4952807,9.1100079 21.2245375,9.16778808 L21.1263501,9.16778808 C20.8874956,9.16718052 20.6821453,8.9892013 20.6354135,8.74228808 L20.1221023,5.99100765 L14.4537189,16.0668444 C14.3677431,16.2241585 14.2112423,16.324008 14.0391501,16.3313444 C13.8669838,16.3466011 13.7003215,16.2631531 13.602762,16.1128444 L8.14791009,8.0628444 L1.6020878,18.7463444 C1.49549473,18.9042654 1.31550814,18.9880975 1.13297053,18.9648444 C0.948344928,18.9664843 0.77777574,18.8611292 0.688885548,18.6905475 C0.599995356,18.5199658 0.607141965,18.3117103 0.707492084,18.1483444 L7.67879282,6.7978444 C7.7699836,6.64934101 7.92555788,6.55871385 8.09336157,6.5563444 C8.26090965,6.54968258 8.42054579,6.63166205 8.51884002,6.7748444 L13.9736919,14.8248444 L19.1680825,5.59451813 Z" id="合并形状" fill="#FFFFFF"></path>
            </g>
        </g>
    </g>
</svg>