<?xml version="1.0" encoding="UTF-8"?>
<svg width="14px" height="14px" viewBox="0 0 14 14" version="1.1" xmlns="http://www.w3.org/2000/svg" xmlns:xlink="http://www.w3.org/1999/xlink">
    <!-- Generator: Sketch 52.4 (67378) - http://www.bohemiancoding.com/sketch -->
    <title>facebook</title>
    <desc>Created with Sketch.</desc>
    <g id="GCOX-确定版" stroke="none" stroke-width="1" fill="none" fill-rule="evenodd">
        <g id="Home" transform="translate(-521.000000, -3065.000000)">
            <g id="底部" transform="translate(0.000000, 2928.000000)">
                <g id="分组-32" transform="translate(521.000000, 35.000000)">
                    <g id="分组-31" transform="translate(0.000000, 102.000000)">
                        <g id="facebook">
                            <rect id="矩形" fill="#000000" opacity="0" x="0" y="0" width="14" height="14"></rect>
                            <path d="M9.69230768,1.16303385 L9.69230768,3.04247178 L8.51822964,3.04247178 C8.08936766,3.04247178 7.80010616,3.12782721 7.65045932,3.29853805 C7.50081247,3.46924889 7.42599614,3.72545005 7.42599614,4.06716849 L7.42599614,5.41260897 L9.61716545,5.41260897 L9.3256793,7.51986819 L7.42599614,7.51986821 L7.42599614,12.9230769 L5.13765063,12.9230769 L5.13765063,7.5198817 L3.23076923,7.5198817 L3.23076923,5.41262248 L5.13763645,5.41262248 L5.13763645,3.86076701 C5.13763645,2.97809104 5.39690057,2.29344019 5.9154288,1.80684144 C6.43394286,1.32022921 7.12444947,1.07692308 7.98694864,1.07692308 C8.71989368,1.07692308 9.28834197,1.10532992 9.69230769,1.16213012 L9.69230768,1.16303385 Z" id="路径" fill="#FFFFFF"></path>
                        </g>
                    </g>
                </g>
            </g>
        </g>
    </g>
</svg>