<?xml version="1.0" encoding="UTF-8"?>
<svg width="18px" height="18px" viewBox="0 0 18 18" version="1.1" xmlns="http://www.w3.org/2000/svg" xmlns:xlink="http://www.w3.org/1999/xlink">
    <!-- Generator: Sketch 52.4 (67378) - http://www.bohemiancoding.com/sketch -->
    <title>退出</title>
    <desc>Created with Sketch.</desc>
    <g id="GCOX-确定版" stroke="none" stroke-width="1" fill="none" fill-rule="evenodd">
        <g id="kyc已通过" transform="translate(-1237.000000, -195.000000)" fill-rule="nonzero">
            <g id="下拉" transform="translate(1230.000000, 63.000000)">
                <g id="退出" transform="translate(16.000000, 141.000000) scale(-1, 1) translate(-16.000000, -141.000000) translate(7.000000, 132.000000)">
                    <rect id="矩形-copy-4" fill="#D8D8D8" opacity="0" x="0" y="0" width="18" height="18"></rect>
                    <path d="M5.24093604,12.3267428 C5.45718192,12.5536037 5.80776,12.5536037 6.02400588,12.3267428 C6.240231,12.0998274 6.240231,11.7319193 6.02400588,11.5050039 L4.63562615,10.048144 L10.1500083,10.048144 C10.4558193,10.048144 10.7037094,9.78802312 10.7037094,9.46712348 C10.7037094,9.14625653 10.4558193,8.88613565 10.1500083,8.88613565 L4.61361639,8.88613565 L6.01755868,7.4129235 C6.2337838,7.18600815 6.2337838,6.81813271 6.01755868,6.59123914 C5.8013128,6.36432379 5.45073472,6.36432379 5.23448884,6.59123914 L3.27687654,8.64543913 C3.27081347,8.65180134 3,8.85254882 3,9.46712348 C2.99998962,10.005003 3.28152765,10.2706145 3.28332373,10.2724774 L5.24093604,12.3267428 Z M8.59631116,3.8666165 L13.4705882,3.8666165 L13.4705882,14.133366 L8.59631116,14.133366 C8.09105831,14.133366 7.68150092,14.5512166 7.68150092,15.0666655 C7.68150092,15.5821494 8.09105831,16 8.59631116,16 L12.7129658,16 C13.9760465,16 15,14.9553647 15,13.6667075 L15,4.3332925 C15,3.04463533 13.9760465,2 12.7129658,2 L8.59631116,2 C8.09105831,2 7.68150092,2.41785063 7.68150092,2.9333345 C7.68150092,3.44876587 8.09105831,3.8666165 8.59631116,3.8666165 Z" id="形状" fill="#5D5E65"></path>
                </g>
            </g>
        </g>
    </g>
</svg>