<?xml version="1.0" encoding="UTF-8"?>
<svg width="18px" height="18px" viewBox="0 0 18 18" version="1.1" xmlns="http://www.w3.org/2000/svg" xmlns:xlink="http://www.w3.org/1999/xlink">
    <!-- Generator: Sketch 52.4 (67378) - http://www.bohemiancoding.com/sketch -->
    <title>KYC认证</title>
    <desc>Created with Sketch.</desc>
    <g id="GCOX-确定版" stroke="none" stroke-width="1" fill="none" fill-rule="evenodd">
        <g id="kyc已通过" transform="translate(-1237.000000, -115.000000)" fill-rule="nonzero">
            <g id="下拉" transform="translate(1230.000000, 63.000000)">
                <g id="KYC认证" transform="translate(7.000000, 52.000000)">
                    <rect id="矩形-copy" fill="#D8D8D8" opacity="0" x="0" y="0" width="18" height="18"></rect>
                    <path d="M13.4206349,10.1933333 C14.468254,9.5 15.1666667,8.28666666 15.1666667,6.9 C15.2539682,4.73333333 13.5079365,3 11.5,3 C9.4047619,3 7.74603174,4.73333333 7.74603174,6.9 C7.74603174,8.28666667 8.44444444,9.5 9.49206348,10.1933333 C7.48412698,10.9733333 5.99999999,13.0533333 6,15.48 C6,15.74 6.26190476,16 6.52380952,16 C6.78571429,16 7.04761905,15.74 7.04761905,15.48 C7.04761905,12.9666667 9.05555555,10.8866667 11.5,10.8866667 C13.9444444,10.8866667 15.952381,12.9666667 15.952381,15.48 C15.952381,15.74 16.2142857,16 16.4761905,16 C16.7380952,16 17,15.74 17,15.48 C16.9126984,13.0533333 15.4285714,11.06 13.4206349,10.1933333 Z M11.5,9.76 C10.015873,9.76 8.79365079,8.46 8.79365079,6.9 C8.79365079,5.34 10.015873,4.04 11.5,4.04 C12.984127,4.04 14.2063492,5.34 14.2063492,6.9 C14.2063492,8.46 12.984127,9.76 11.5,9.76 Z" id="形状" fill="#4A4B53"></path>
                    <path d="M7.43243244,3 L3.37837838,3 C2.64864865,3 2,3.67132867 2,4.51048951 L2,13.4895105 C2,14.3286713 2.64864865,15 3.45945946,15 L5.40540541,15 C5.64864865,15 5.89189189,14.7482517 5.89189189,14.4965035 C5.89189189,14.2447552 5.72972974,13.993007 5.40540541,13.993007 L3.2972973,13.993007 C3.21621622,13.993007 3.13513514,13.993007 3.05405406,13.9090909 C2.97297297,13.8251748 2.97297297,13.7412588 2.97297297,13.6573427 L2.97297297,4.34265735 C2.97297297,4.17482518 3.13513513,4.00699301 3.2972973,4.00699301 L7.51351351,4.00699301 C7.75675676,4.00699301 8,3.75524476 8,3.5034965 C7.91891893,3.25174825 7.67567568,3 7.43243244,3 Z M6.78378378,7.6993007 C6.7027027,7.6993007 6.7027027,7.6993007 6.78378378,7.6993007 C6.7027027,7.6993007 6.7027027,7.6993007 6.78378378,7.6993007 L4.35135135,7.6993007 C4.10810811,7.6993007 3.86486486,7.95104895 3.86486486,8.28671329 C3.86486486,8.62237763 4.10810811,8.87412588 4.35135135,8.87412588 L6.70270271,8.87412588 C6.94594595,8.87412588 7.1891892,8.62237763 7.1891892,8.28671329 C7.27027028,7.95104895 7.02702704,7.6993007 6.78378378,7.6993007 Z M6.78378378,10.2167832 C6.7027027,10.2167832 6.7027027,10.2167832 6.78378378,10.2167832 C6.7027027,10.2167832 6.7027027,10.2167832 6.78378378,10.2167832 L4.35135135,10.2167832 C4.10810811,10.2167832 3.86486486,10.4685315 3.86486486,10.8041958 C3.86486486,11.1398601 4.10810811,11.3916084 4.35135135,11.3916084 L6.70270271,11.3916084 C6.94594595,11.3916084 7.1891892,11.1398601 7.1891892,10.8041958 C7.27027028,10.4685315 7.02702704,10.2167832 6.78378378,10.2167832 Z M6.78378378,5.18181818 C6.7027027,5.18181818 6.7027027,5.18181818 6.78378378,5.18181818 C6.7027027,5.18181818 6.7027027,5.18181818 6.78378378,5.18181818 L4.35135135,5.18181818 C4.10810811,5.18181818 3.86486486,5.43356643 3.86486486,5.76923077 C3.86486486,6.10489511 4.10810811,6.35664336 4.35135135,6.35664336 L6.70270271,6.35664336 C6.94594595,6.35664336 7.1891892,6.10489511 7.1891892,5.76923077 C7.27027028,5.43356643 7.02702704,5.18181818 6.78378378,5.18181818 Z" id="形状" fill="#4A4B53"></path>
                </g>
            </g>
        </g>
    </g>
</svg>