<?xml version="1.0" encoding="UTF-8"?>
<svg width="20px" height="20px" viewBox="0 0 20 20" version="1.1" xmlns="http://www.w3.org/2000/svg" xmlns:xlink="http://www.w3.org/1999/xlink">
    <!-- Generator: Sketch 52.4 (67378) - http://www.bohemiancoding.com/sketch -->
    <title>系统消息</title>
    <desc>Created with Sketch.</desc>
    <g id="GCOX-确定版" stroke="none" stroke-width="1" fill="none" fill-rule="evenodd">
        <g id="kyc已通过" transform="translate(-1236.000000, -153.000000)" fill-rule="nonzero">
            <g id="下拉" transform="translate(1230.000000, 63.000000)">
                <g id="系统消息" transform="translate(6.401333, 90.992646)">
                    <rect id="矩形-copy-2" fill="#D8D8D8" opacity="0" x="0.598667222" y="0.00735420396" width="18" height="18"></rect>
                    <path d="M6.78025024,7.58287115 L5.39055249,7.58884163 C5.01413042,7.58884163 4.70898051,7.88193455 4.70898051,8.2435748 C4.70898051,8.60514543 5.01414866,8.89830798 5.39055249,8.89830798 L6.78025024,8.89233751 C7.15667231,8.89233751 7.46184046,8.59917496 7.46184046,8.23756951 C7.46184046,7.87598148 7.15667231,7.58287115 6.78025024,7.58287115 Z M15.6702489,3 L3.23486135,3.00544828 C2.55028019,3.06654557 2.01293039,3.61375796 2,4.2844008 L2.00545301,12.2874495 C2.0693937,12.9535318 2.65241021,13.4751912 3.36250564,13.4751912 L4.08666218,13.4751912 L6.09866003,13.4754001 C6.4750821,13.4754001 6.78023201,13.1822724 6.78023201,12.8206844 C6.78023201,12.4590441 6.47511857,12.1659338 6.09866003,12.1659338 L3.95413025,12.1696762 C3.54278336,12.1324086 3.41037908,12.0185692 3.36815926,11.6723686 L3.36354518,4.8938071 C3.4062027,4.47287985 3.55150089,4.35000641 4.04498949,4.31458391 L15.0956946,4.30974486 C15.4627426,4.35674278 15.5889644,4.49469036 15.6317495,4.89902909 L15.6363089,11.5790343 C15.5976819,12.0057057 15.4702382,12.1307376 15.0517969,12.1670478 L9.53799784,12.1718868 C9.5112121,12.1705703 9.4843682,12.1707679 9.45760692,12.1724787 C9.22830679,12.1795806 9.02769426,12.2954043 8.90975232,12.4681478 L6.36942264,14.8822764 C6.10330099,15.1379799 6.10330099,15.5525363 6.36942264,15.8082224 C6.63563548,16.0639259 7.06715305,16.0639259 7.33332941,15.8082224 L9.78245333,13.4811269 L14.9278549,13.4766186 L15.6520114,13.4752087 C16.3357719,13.4752087 16.901864,12.9915305 17,12.3609577 L16.9943646,4.08224014 C16.8835171,3.47276421 16.3343311,3.0084074 15.6702489,3 Z M10.1880736,8.89235491 C10.5644957,8.89235491 10.8696456,8.59919236 10.8696456,8.23758692 C10.8696456,7.87599889 10.5645322,7.58288856 10.1880736,7.58288856 L8.79837589,7.58885903 C8.4219903,7.58885903 8.11682215,7.88195196 8.11682215,8.24359221 C8.11682215,8.60518024 8.4219903,8.89832539 8.79839413,8.89832539 L10.1880919,8.89235491 L10.1880736,8.89235491 Z M13.5959153,8.89235491 C13.9723374,8.89235491 14.277469,8.59919236 14.277469,8.23758692 C14.277469,7.87599889 13.9723556,7.58288856 13.5959153,7.58288856 L12.2062175,7.58885903 C11.8298137,7.58885903 11.5246456,7.88195196 11.5246456,8.24359221 C11.5246456,8.60518024 11.8298137,8.89832539 12.2062175,8.89832539 L13.5959153,8.89235491 Z" id="形状" fill="#5D5E65" transform="translate(9.500000, 9.500000) scale(-1, 1) translate(-9.500000, -9.500000) "></path>
                </g>
            </g>
        </g>
    </g>
</svg>