<?xml version="1.0" encoding="UTF-8"?>
<svg width="18px" height="18px" viewBox="0 0 18 18" version="1.1" xmlns="http://www.w3.org/2000/svg" xmlns:xlink="http://www.w3.org/1999/xlink">
    <!-- Generator: Sketch 52.4 (67378) - http://www.bohemiancoding.com/sketch -->
    <title>个人信息中心</title>
    <desc>Created with Sketch.</desc>
    <g id="GCOX-确定版" stroke="none" stroke-width="1" fill="none" fill-rule="evenodd">
        <g id="kyc已通过" transform="translate(-1237.000000, -75.000000)" fill-rule="nonzero">
            <g id="下拉" transform="translate(1230.000000, 63.000000)">
                <g id="个人信息中心" transform="translate(7.000000, 12.000000)">
                    <rect id="矩形" fill="#D8D8D8" opacity="0" x="0" y="0" width="18" height="18"></rect>
                    <path d="M9.00000991,12.4285714 C9.28147033,12.4285714 9.4690974,12.2742715 9.4690974,12.0428053 L9.4690974,9.76673478 L12.2367949,9.76673478 C12.5182355,9.76673478 12.7058824,9.61241856 12.7058824,9.38095238 C12.7058824,9.1494862 12.5182355,8.99518628 12.2367949,8.99518628 L9.4690974,8.99518628 L9.4690974,6.71909944 C9.4690974,6.48763326 9.28147033,6.33333333 9.00000991,6.33333333 C8.71854949,6.33333333 8.5309026,6.48763326 8.5309026,6.71909944 L8.5309026,8.99518628 L5.76322496,8.99518628 C5.48176453,8.99518628 5.29411765,9.1494862 5.29411765,9.38095238 C5.29411765,9.61241856 5.48178435,9.76673478 5.76322496,9.76673478 L8.5309026,9.76673478 L8.5309026,12.042789 C8.5309026,12.2742552 8.71854949,12.4285551 9.00000991,12.4285551 L9.00000991,12.4285714 Z M9.02194212,17 C9.1097106,17 9.19749763,16.9596496 9.24138187,16.9192991 L12.18183,15.1841111 C14.5956116,13.5699914 16,12.1576239 16,9.65574357 L16,3.7238376 C16,3.52206838 15.8244445,3.36064959 15.648889,3.32029915 C14.6833801,3.19924785 12.5329039,2.71500854 9.19749763,1.06053844 C9.06582636,0.979820521 8.93417364,0.979820521 8.80250237,1.06053844 C5.42321185,2.71500854 3.31661994,3.19924785 2.35109247,3.32029915 C2.13165272,3.36064959 2,3.52206838 2,3.7238376 L2,9.65574357 C2,12.1979744 3.44827267,13.6103248 5.90595704,15.1841111 L6.38872078,15.4665812 C6.60814198,15.5876325 6.87146597,15.5472821 7.00313724,15.3455299 C7.13478996,15.1437607 7.09090572,14.901624 6.87146597,14.7805897 L6.344818,14.4981196 C4.06268912,13.0454017 2.83385621,11.8348034 2.83385621,9.65572653 L2.83385621,4.0870256 C3.97492064,3.88525638 5.99372553,3.3203162 8.97805788,1.90796575 C11.9623717,3.36066664 14.0250794,3.88525638 15.1222596,4.0870256 L15.1222596,9.65576062 C15.1222596,11.8348205 13.9372923,13.0050513 11.6551635,14.4981196 L8.75861813,16.2332906 C8.53917839,16.3543419 8.49529414,16.5964616 8.62696541,16.7982308 C8.71473389,16.9192991 8.84638662,17 9.02194212,17 Z" id="形状" stroke="#4A4B53" stroke-width="0.3" fill="#4A4B53"></path>
                </g>
            </g>
        </g>
    </g>
</svg>