<?xml version="1.0" encoding="UTF-8"?>
<svg width="14px" height="14px" viewBox="0 0 14 14" version="1.1" xmlns="http://www.w3.org/2000/svg" xmlns:xlink="http://www.w3.org/1999/xlink">
    <!-- Generator: Sketch 52.4 (67378) - http://www.bohemiancoding.com/sketch -->
    <title>instagram</title>
    <desc>Created with Sketch.</desc>
    <g id="GCOX-确定版" stroke="none" stroke-width="1" fill="none" fill-rule="evenodd">
        <g id="Home" transform="translate(-638.000000, -3065.000000)">
            <g id="底部" transform="translate(0.000000, 2928.000000)">
                <g id="分组-32" transform="translate(521.000000, 35.000000)">
                    <g id="分组-31" transform="translate(0.000000, 102.000000)">
                        <g id="instagram" transform="translate(117.000000, 0.000000)">
                            <rect id="矩形" fill="#000000" opacity="0" x="0" y="0" width="14" height="14"></rect>
                            <path d="M7,4.9171875 C5.853125,4.9171875 4.9171875,5.853125 4.9171875,7 C4.9171875,8.146875 5.853125,9.0828125 7,9.0828125 C8.146875,9.0828125 9.0828125,8.146875 9.0828125,7 C9.0828125,5.853125 8.146875,4.9171875 7,4.9171875 Z M13.246875,7 C13.246875,6.1375 13.2546875,5.2828125 13.20625,4.42187499 C13.1578125,3.421875 12.9296875,2.53437499 12.1984375,1.803125 C11.465625,1.0703125 10.5796875,0.84374999 9.5796875,0.795312506 C8.7171875,0.746875008 7.8625,0.7546875 7.0015625,0.7546875 C6.13906251,0.7546875 5.284375,0.746874994 4.4234375,0.795312506 C3.4234375,0.843750004 2.5359375,1.071875 1.8046875,1.803125 C1.071875,2.5359375 0.845312494,3.421875 0.796874996,4.42187499 C0.748437498,5.28437499 0.75624999,6.13906249 0.756250004,7 C0.756250018,7.86093751 0.748437498,8.7171875 0.796874996,9.57812501 C0.845312494,10.578125 1.07343749,11.465625 1.8046875,12.196875 C2.5375,12.9296875 3.4234375,13.15625 4.4234375,13.2046875 C5.28593749,13.253125 6.140625,13.2453125 7.0015625,13.2453125 C7.8640625,13.2453125 8.71875,13.253125 9.5796875,13.2046875 C10.5796875,13.15625 11.4671875,12.928125 12.1984375,12.196875 C12.93125,11.4640625 13.1578125,10.578125 13.20625,9.57812501 C13.25625,8.7171875 13.246875,7.86250001 13.246875,7 Z M7,10.2046875 C5.2265625,10.2046875 3.7953125,8.7734375 3.7953125,7 C3.7953125,5.2265625 5.2265625,3.7953125 7,3.7953125 C8.7734375,3.7953125 10.2046875,5.2265625 10.2046875,7 C10.2046875,8.7734375 8.7734375,10.2046875 7,10.2046875 Z M10.3359375,4.4125 C9.921875,4.4125 9.5875,4.078125 9.5875,3.6640625 C9.5875,3.25 9.921875,2.915625 10.3359375,2.915625 C10.75,2.915625 11.084375,3.25 11.084375,3.6640625 C11.0846242,3.86263676 11.0058512,4.05314959 10.8654379,4.1935629 C10.7250246,4.33397622 10.5345118,4.4127492 10.3359375,4.4125 Z" id="形状" fill="#FFFFFF" fill-rule="nonzero"></path>
                        </g>
                    </g>
                </g>
            </g>
        </g>
    </g>
</svg>