<?xml version="1.0" encoding="UTF-8"?>
<svg width="14px" height="14px" viewBox="0 0 14 14" version="1.1" xmlns="http://www.w3.org/2000/svg" xmlns:xlink="http://www.w3.org/1999/xlink">
    <!-- Generator: Sketch 52.4 (67378) - http://www.bohemiancoding.com/sketch -->
    <title>linkedin</title>
    <desc>Created with Sketch.</desc>
    <g id="GCOX-确定版" stroke="none" stroke-width="1" fill="none" fill-rule="evenodd">
        <g id="Home" transform="translate(-560.000000, -3065.000000)">
            <g id="底部" transform="translate(0.000000, 2928.000000)">
                <g id="分组-32" transform="translate(521.000000, 35.000000)">
                    <g id="分组-31" transform="translate(0.000000, 102.000000)">
                        <g id="linkedin" transform="translate(39.000000, 0.000000)">
                            <rect id="矩形" fill="#000000" opacity="0" x="0" y="0" width="14" height="14"></rect>
                            <path d="M5.73234375,12.3709824 L8.08476758,12.3709824 L8.08476758,7.81630664 C8.08476758,7.59108984 8.10978711,7.3408125 8.18485937,7.19066797 C8.33501758,6.74019336 8.73543945,6.26472656 9.38608398,6.26472656 C10.2369805,6.26472656 10.5873086,6.96542383 10.5873086,7.96646484 L10.5873086,12.3459629 L12.9397324,12.3459629 L12.9397324,7.66614844 C12.9397324,5.33873047 11.7885469,4.2626582 10.2369531,4.2626582 C8.98564844,4.2626582 8.20989258,5.01344922 7.90953516,5.51396289 L7.85945508,5.51396289 L7.75936328,4.43786328 L5.70724219,4.43786328 C5.73226172,5.13856055 5.75732227,5.9644375 5.75732227,6.96549219 L5.75732227,12.3710645 L5.73234375,12.3709824 Z M2.67918164,1.03430469 C1.92839063,1.03430469 1.42787695,1.55986523 1.45292383,2.28560937 C1.4279043,2.96130078 1.92841797,3.51186719 2.67918164,3.51186719 C3.45496484,3.51186719 3.95550586,2.96128711 3.95550586,2.28560937 C3.90542578,1.55983789 3.42994531,1.03430469 2.67918164,1.03430469 Z M3.85540039,12.3709824 L3.85540039,4.46286914 L1.50297656,4.46286914 L1.50297656,12.3709824 L3.85540039,12.3709824 Z" id="形状" fill="#FFFFFF" fill-rule="nonzero"></path>
                        </g>
                    </g>
                </g>
            </g>
        </g>
    </g>
</svg>