<?xml version="1.0" encoding="UTF-8"?>
<svg width="146px" height="41px" viewBox="0 0 146 41" version="1.1" xmlns="http://www.w3.org/2000/svg" xmlns:xlink="http://www.w3.org/1999/xlink">
    <!-- Generator: Sketch 52.4 (67378) - http://www.bohemiancoding.com/sketch -->
    <title>底部LOGo</title>
    <desc>Created with Sketch.</desc>
    <defs>
        <linearGradient x1="50%" y1="-7.81394123%" x2="50%" y2="166.122019%" id="linearGradient-1">
            <stop stop-color="#FFFFFF" offset="0%"></stop>
            <stop stop-color="#D0D1D1" offset="21%"></stop>
            <stop stop-color="#686C6B" offset="68%"></stop>
            <stop stop-color="#464745" offset="100%"></stop>
        </linearGradient>
        <linearGradient x1="50%" y1="-649.614792%" x2="50%" y2="367.334361%" id="linearGradient-2">
            <stop stop-color="#FFFFFF" offset="0%"></stop>
            <stop stop-color="#D0D1D1" offset="21%"></stop>
            <stop stop-color="#686C6B" offset="68%"></stop>
            <stop stop-color="#464745" offset="100%"></stop>
        </linearGradient>
        <linearGradient x1="50.0028492%" y1="-6.46180669%" x2="50.0028492%" y2="137.376049%" id="linearGradient-3">
            <stop stop-color="#FFFFFF" offset="0%"></stop>
            <stop stop-color="#D0D1D1" offset="21%"></stop>
            <stop stop-color="#686C6B" offset="68%"></stop>
            <stop stop-color="#464745" offset="100%"></stop>
        </linearGradient>
        <linearGradient x1="50.0174662%" y1="-6.38870933%" x2="50.0174662%" y2="135.822021%" id="linearGradient-4">
            <stop stop-color="#FFFFFF" offset="0%"></stop>
            <stop stop-color="#D0D1D1" offset="21%"></stop>
            <stop stop-color="#686C6B" offset="68%"></stop>
            <stop stop-color="#464745" offset="100%"></stop>
        </linearGradient>
    </defs>
    <g id="GCOX-确定版" stroke="none" stroke-width="1" fill="none" fill-rule="evenodd">
        <g id="Home" transform="translate(-521.000000, -2963.000000)">
            <g id="底部" transform="translate(0.000000, 2928.000000)">
                <g id="分组-32" transform="translate(521.000000, 35.000000)">
                    <g id="底部LOGo">
                        <g id="分组" transform="translate(4.000000, 3.000000)">
                            <path d="M86.70456,28.3697175 C90.0349922,28.3725997 93.2298288,27.0643284 95.5846295,24.7333687 C97.9394303,22.402409 99.26081,19.2401881 99.2574133,15.9439548 C99.2564999,15.4571697 99.2296716,14.9707704 99.17704,14.4867797 C91.47216,15.3527684 83.0494,16.0289266 74.1517067,16.4610169 C74.4215965,23.1211922 79.96075,28.3799288 86.6954267,28.3697175 L86.70456,28.3697175 Z" id="路径"></path>
                            <path d="M7.22446667,24.7340113 C9.55549378,27.1027991 12.768785,28.4176788 16.1093733,28.3697175 C19.454101,28.4158768 22.6706344,27.0977529 25.0034133,24.7249718 C26.9567604,22.8447166 28.2074443,20.3639347 28.5508,17.6885876 L15.4462933,17.6885876 L15.4462933,15.3021469 C11.2047733,14.8610169 7.28109333,14.3385311 3.73553333,13.7473446 C3.61306354,14.4732504 3.55196298,15.2079992 3.55286667,15.9439548 C3.50428781,19.2488453 4.83215482,22.4278479 7.22446667,24.7340113 Z" id="路径"></path>
                            <path d="M99.2574133,15.9439548 C99.2824145,22.7233428 93.8123553,28.271306 86.9640688,28.41238 C80.1157822,28.553454 74.4172189,23.2355633 74.1571867,16.4610169 C72.9917733,16.5164595 71.8178356,16.5688889 70.6353733,16.6183051 C70.79064,20.7077966 72.3652267,24.2657627 75.3299067,27.1981921 C78.4553333,30.2915254 82.2803733,31.860791 86.7009067,31.860791 C91.12144,31.860791 94.94648,30.2915254 98.0719067,27.1981921 C101.197333,24.1048588 102.78288,20.3172881 102.78288,15.9439548 C102.782247,15.3188253 102.747489,14.6941862 102.67876,14.0727684 C101.529178,14.2149906 100.362547,14.3529944 99.1788667,14.4867797 C99.2308881,14.9708023 99.2571067,15.4572015 99.2574133,15.9439548 Z" id="路径" fill="#FFFFFF"></path>
                            <path d="M15.4462933,17.6885876 L28.5489733,17.6885876 C28.2056177,20.3639347 26.9549337,22.8447166 25.0015867,24.7249718 C22.6688077,27.0977529 19.4522744,28.4158768 16.1075467,28.3697175 C12.7761843,28.3745239 9.57984241,27.0669862 7.22403963,24.7357131 C4.86823686,22.40444 3.54666841,19.2411099 3.55104,15.9439548 C3.55013631,15.2079992 3.61123688,14.4732504 3.73370667,13.7473446 C2.53176,13.5472693 1.37487111,13.3393597 0.26304,13.1236158 C0.104589822,14.0555338 0.0251574906,14.998934 0.0255733333,15.9439548 C0.0255733333,20.319096 1.60929333,24.1048588 4.73654667,27.1981921 C7.8638,30.2915254 11.67788,31.860791 16.1075467,31.860791 C20.5372133,31.860791 24.35312,30.2915254 27.4785467,27.1981921 C30.45784,24.2494915 32.0342533,20.6662147 32.1749067,16.5459887 C26.1907467,16.2567232 20.5901867,15.8445198 15.4462933,15.3021469 L15.4462933,17.6885876 Z" id="路径" fill="#FFFFFF"></path>
                            <path d="M40.03688,27.1981921 C43.1586533,30.2915254 46.9782133,31.860791 51.40788,31.860791 C55.8375467,31.860791 59.6516267,30.2915254 62.77888,27.1981921 C64.5756304,25.4540825 65.9236434,23.3089935 66.7098667,20.9428249 L62.9396267,20.9428249 C62.3084082,22.3564288 61.4135402,23.6395594 60.30192,24.7249718 C55.3930335,29.5813644 47.4379058,29.5862181 42.5229733,24.7358192 C40.3460488,22.6397327 39.0457634,19.8096407 38.8806,16.8081356 C37.6896133,16.7719774 36.5101956,16.7309981 35.3423467,16.6851977 C35.5067467,20.7475706 37.08864,24.2820339 40.03688,27.1981921 Z" id="路径" fill="#FFFFFF"></path>
                            <path d="M107.294747,30.8899435 L109.52328,30.8899435 L125.325773,10.1658757 C124.452627,10.3755932 123.552689,10.5816949 122.62596,10.7841808 L107.294747,30.8899435 Z" id="路径" fill="#00A0E9"></path>
                            <path d="M117.078373,13.0079096 L103.442307,30.9152542 L105.669013,30.9152542 L118.216387,14.5048588 L119.303253,13.0079096 L118.31868,11.6610169 C117.66656,11.7857627 117.00348,11.9068927 116.32944,12.0225989 L117.078373,13.0079096 Z" id="路径" fill="#FFFFFF"></path>
                            <path d="M114.371253,14.4343503 L115.467253,12.9374011 L114.961267,12.2720904 C114.310973,12.3853861 113.652156,12.4962712 112.984813,12.6047458 L114.371253,14.4343503 Z" id="路径" fill="#FFFFFF"></path>
                            <path d="M120.287827,12.0153672 L120.983787,11.1331073 C120.591053,11.2126554 120.19832,11.2940113 119.79828,11.3735593 L120.287827,12.0153672 Z" id="路径" fill="#FFFFFF"></path>
                            <polygon id="路径" fill="#00A0E9" points="132.941147 30.8917514 123.177613 18.0122034 122.035947 16.560452 120.896107 18.0122034 122.035947 19.5109605 130.712613 30.8917514"></polygon>
                            <path d="M123.94664,14.0474576 L122.8068,15.5462147 L123.94664,16.9925424 L134.541307,30.9134463 L136.822813,30.9134463 L125.09744,15.5462147 L130.159133,8.89129944 C129.239711,9.16007533 128.278884,9.42403013 127.276653,9.68316384 L123.94664,14.0474576 Z" id="路径" fill="#00A0E9"></path>
                            <polygon id="路径" fill="#00A0E9" points="120.128907 19.1728814 118.98724 20.6228249 120.128907 22.119774 126.84008 30.8917514 129.068613 30.8917514 121.215773 20.6228249"></polygon>
                            <path d="M7.22446667,7.15028249 C9.66124,4.73853107 12.6514933,3.51819209 16.1093733,3.51819209 C19.4491581,3.4676544 22.6638307,4.77456051 25.0034133,7.1340113 L25.47104,7.59141243 L27.948,5.14350282 L27.4803733,4.68067797 C24.3549467,1.59638418 20.52808,0.0271186441 16.1075467,0.0271186441 C11.6870133,0.0271186441 7.86197333,1.59638418 4.73654667,4.68971751 C2.30342667,7.0960452 0.809213333,9.93265537 0.26304,13.1236158 C1.37608889,13.3393597 2.53297778,13.5472693 3.73370667,13.7473446 C4.15812607,11.2366289 5.38103998,8.92548775 7.22446667,7.15028249 Z" id="路径" fill="#000000"></path>
                            <path d="M32.18952,14.199322 L15.4462933,14.199322 L15.4462933,15.3021469 C20.58836,15.8445198 26.1980533,16.2585311 32.1749067,16.5459887 C32.1749067,16.3453107 32.18952,16.1464407 32.18952,15.9439548 L32.18952,14.199322 Z" id="路径" fill="#000000"></path>
                            <g transform="translate(0.182667, 0.000000)" id="路径">
                                <path d="M24.8207467,7.14305085 L25.2883733,7.60045198 L27.7653333,5.15254237 L27.2977067,4.68971751 C24.17228,1.59638418 20.3454133,0.0271186441 15.92488,0.0271186441 C11.5043467,0.0271186441 7.67930667,1.59638418 4.55388,4.68971751 C2.12076,7.0960452 0.626546667,9.93265537 0.0803733333,13.1236158 C1.19342222,13.3393597 2.35031111,13.5472693 3.55104,13.7473446 C3.9753255,11.2374967 5.19755859,8.92706622 7.03997333,7.1520904 C9.47674667,4.74033898 12.467,3.52 15.92488,3.52 C19.266375,3.47086286 22.4819609,4.78048579 24.8207467,7.14305085 Z" fill="url(#linearGradient-1)"></path>
                                <path d="M15.2636267,14.199322 L15.2636267,15.3021469 C20.4056933,15.8445198 26.0153867,16.2585311 31.99224,16.5459887 C31.99224,16.3453107 32.0068533,16.1464407 32.0068533,15.9439548 L32.0068533,14.199322 L15.2636267,14.199322 Z" fill="url(#linearGradient-2)"></path>
                            </g>
                            <path d="M86.70456,0.0271186441 C82.2840267,0.0271186441 78.45716,1.59638418 75.33356,4.68971751 C72.20996,7.78305085 70.6244133,11.559774 70.6244133,15.9439548 C70.6244133,16.1699435 70.6244133,16.3941243 70.6390267,16.6183051 C71.8202711,16.5712994 72.9942089,16.5188701 74.16084,16.4610169 C74.16084,16.280226 74.14988,16.1175141 74.14988,15.9439548 C74.1440481,12.6466715 75.4648966,9.48277537 77.8206212,7.15124043 C80.1763458,4.81970549 83.3730674,3.51242003 86.70456,3.51819209 C90.16244,3.51819209 93.1526933,4.73853107 95.58764,7.15028249 C97.6168323,9.1035882 98.8885033,11.7001572 99.1806933,14.4867797 C100.364373,14.3529944 101.531004,14.2149906 102.680587,14.0727684 C102.287853,10.480452 100.74432,7.33107345 98.07556,4.6879096 C94.9501333,1.59638418 91.1250933,0.0271186441 86.70456,0.0271186441 Z" id="路径" fill="#000000"></path>
                            <path d="M86.70456,0.0271186441 C82.2840267,0.0271186441 78.45716,1.59638418 75.33356,4.68971751 C72.20996,7.78305085 70.6244133,11.559774 70.6244133,15.9439548 C70.6244133,16.1699435 70.6244133,16.3941243 70.6390267,16.6183051 C71.8202711,16.5712994 72.9942089,16.5188701 74.16084,16.4610169 C74.16084,16.280226 74.14988,16.1175141 74.14988,15.9439548 C74.1440481,12.6466715 75.4648966,9.48277537 77.8206212,7.15124043 C80.1763458,4.81970549 83.3730674,3.51242003 86.70456,3.51819209 C90.16244,3.51819209 93.1526933,4.73853107 95.58764,7.15028249 C97.6168323,9.1035882 98.8885033,11.7001572 99.1806933,14.4867797 C100.364373,14.3529944 101.531004,14.2149906 102.680587,14.0727684 C102.287853,10.480452 100.74432,7.33107345 98.07556,4.6879096 C94.9501333,1.59638418 91.1250933,0.0271186441 86.70456,0.0271186441 Z" id="路径" fill="url(#linearGradient-3)"></path>
                            <path d="M42.5229733,7.15028249 C44.9597467,4.73853107 47.95,3.51819209 51.3987467,3.51819209 C54.7376153,3.46963916 57.9509634,4.77627513 60.29096,7.1340113 C61.402103,8.23027465 62.2977582,9.52134035 62.93232,10.9414689 L66.6989067,10.9414689 C65.9127483,8.57527033 64.5647263,6.43016701 62.76792,4.68610169 C59.6516267,1.59638418 55.8265867,0.0271186441 51.3987467,0.0271186441 C46.9709067,0.0271186441 43.1586533,1.59638418 40.03688,4.68971751 C36.9151067,7.78305085 35.32408,11.5670056 35.32408,15.9439548 C35.32408,16.1916384 35.32408,16.439322 35.3423467,16.6851977 C36.5089778,16.7322034 37.6883956,16.7731827 38.8806,16.8081356 C38.8623333,16.5242938 38.8513733,16.2350282 38.8513733,15.9439548 C38.8022194,12.6378964 40.1300979,9.45755865 42.5229733,7.15028249 Z" id="路径" fill="#000000"></path>
                            <path d="M42.5229733,7.15028249 C44.9597467,4.73853107 47.95,3.51819209 51.3987467,3.51819209 C54.7376153,3.46963916 57.9509634,4.77627513 60.29096,7.1340113 C61.402103,8.23027465 62.2977582,9.52134035 62.93232,10.9414689 L66.6989067,10.9414689 C65.9127483,8.57527033 64.5647263,6.43016701 62.76792,4.68610169 C59.6516267,1.59638418 55.8265867,0.0271186441 51.3987467,0.0271186441 C46.9709067,0.0271186441 43.1586533,1.59638418 40.03688,4.68971751 C36.9151067,7.78305085 35.32408,11.5670056 35.32408,15.9439548 C35.32408,16.1916384 35.32408,16.439322 35.3423467,16.6851977 C36.5089778,16.7322034 37.6883956,16.7731827 38.8806,16.8081356 C38.8623333,16.5242938 38.8513733,16.2350282 38.8513733,15.9439548 C38.8022194,12.6378964 40.1300979,9.45755865 42.5229733,7.15028249 Z" id="路径" fill="url(#linearGradient-4)"></path>
                            <path d="M129.918013,1.21491525 L122.62048,10.7823729 C123.547209,10.5786817 124.447147,10.37258 125.320293,10.1640678 L132.137413,1.21491525 L129.918013,1.21491525 Z" id="路径" fill="#00A0E9"></path>
                            <path d="M110.314227,1.21491525 L108.085693,1.21491525 L116.331267,12.0298305 C117.00348,11.9068927 117.668387,11.7857627 118.320507,11.6682486 L118.245613,11.5651977 L110.314227,1.21491525 Z" id="路径" fill="#FFFFFF"></path>
                            <path d="M104.291707,1.21491525 L112.977507,12.6047458 C113.644849,12.4950659 114.303667,12.3841808 114.95396,12.2720904 L106.52024,1.21491525 L104.291707,1.21491525 Z" id="路径" fill="#FFFFFF"></path>
                            <path d="M114.320107,1.21491525 L112.04408,1.21491525 L119.805587,11.3735593 C120.205627,11.2940113 120.59836,11.2126554 120.991093,11.1331073 L121.4368,10.5654237 L114.320107,1.21491525 Z" id="路径" fill="#FFFFFF"></path>
                            <path d="M133.712,1.21491525 L127.26752,9.68316384 C128.272187,9.42403013 129.233013,9.16007533 130.15,8.89129944 L135.995333,1.21491525 L133.712,1.21491525 Z" id="路径" fill="#00A0E9"></path>
                        </g>
                        <g id="分组" transform="translate(7.000000, 37.000000)" fill="#85827C">
                            <path d="M3.93359781,3.69076923 C3.47231451,3.82833341 2.98718953,3.90008113 2.49807114,3.90307692 C1.744829,3.90307692 1.17534884,3.74153846 0.751422709,3.4 C0.327182049,3.03070775 0.102036731,2.5297147 0.129179207,2.01538462 C0.129179207,0.824615385 1.13350205,0.0584615385 2.60905609,0.0584615385 C3.0141598,0.0487207023 3.41731041,0.109463767 3.79350205,0.236923077 L3.61155951,0.790769231 C3.29216604,0.675632427 2.94701309,0.620516328 2.59995896,0.629230769 C1.64839945,0.629230769 0.980670315,1.10461538 0.980670315,1.98307692 C0.980670315,2.86153846 1.60291382,3.34769231 2.52900137,3.34769231 C2.73813873,3.35668055 2.94727709,3.32999725 3.14396717,3.26923077 L3.14396717,2.32923077 L2.3597948,2.32923077 L2.3597948,1.79076923 L3.93359781,1.79076923 L3.93359781,3.69076923 Z" id="路径"></path>
                            <polygon id="路径" points="5.49648427 0.0984615385 6.30976744 0.0984615385 6.30976744 3.29076923 8.14192886 3.29076923 8.14192886 3.86615385 5.49648427 3.86615385"></polygon>
                            <path d="M13.1799179,1.94461538 C13.1799179,3.20769231 12.2702052,3.92923077 11.0439124,3.92923077 C9.8176197,3.92923077 8.99341997,3.11846154 8.99341997,2.01076923 C8.99341997,0.853846154 9.85400821,0.0369230769 11.1094118,0.0369230769 C12.4139398,0.0338461538 13.1799179,0.867692308 13.1799179,1.94461538 Z M9.85400821,2 C9.85400821,2.76923077 10.310684,3.38461538 11.0912175,3.38461538 C11.871751,3.38461538 12.3211491,2.76923077 12.3211491,1.97538462 C12.3211491,1.26461538 11.9045007,0.590769231 11.0912175,0.590769231 C10.2779343,0.590769231 9.85400821,1.22 9.85400821,1.99692308 L9.85400821,2 Z" id="形状" fill-rule="nonzero"></path>
                            <path d="M14.6099863,0.146153846 C15.0013333,0.090795152 15.3976645,0.0645408871 15.7944323,0.0676923077 C16.3966621,0.0676923077 16.7660055,0.129230769 17.0680301,0.307692308 C17.361774,0.454334786 17.5386094,0.723955533 17.5301642,1.01230769 C17.5181607,1.39135053 17.2194065,1.72093483 16.789658,1.82923077 L16.789658,1.84 C17.3138783,1.93078524 17.6898114,2.32137845 17.6884542,2.77384615 C17.6943131,3.07488868 17.5359387,3.36144944 17.2590698,3.55076923 C16.9406703,3.78615385 16.4184952,3.90307692 15.605212,3.90307692 C15.2713238,3.90399495 14.9377016,3.88703796 14.6063475,3.85230769 L14.6099863,0.146153846 Z M15.4159918,1.63384615 L15.8326402,1.63384615 C16.3948427,1.63384615 16.7114227,1.41076923 16.7114227,1.09076923 C16.7114227,0.738461538 16.3948427,0.576923077 15.8781259,0.576923077 C15.7233608,0.572509144 15.568474,0.581790371 15.4159918,0.604615385 L15.4159918,1.63384615 Z M15.4159918,3.36769231 C15.5583222,3.38334538 15.701941,3.38900575 15.8453762,3.38461538 C16.3675513,3.38461538 16.8315048,3.21692308 16.8315048,2.75230769 C16.8315048,2.31692308 16.3821067,2.13692308 15.8199042,2.13692308 L15.4159918,2.13692308 L15.4159918,3.36769231 Z" id="形状" fill-rule="nonzero"></path>
                            <path d="M20.0191382,2.79692308 L19.6352394,3.86461538 L18.7946648,3.86461538 L20.2229138,0.0953846154 L21.2618057,0.0953846154 L22.7173461,3.86461538 L21.8440219,3.86461538 L21.4401094,2.79692308 L20.0191382,2.79692308 Z M21.292736,2.27692308 L20.9415869,1.35384615 C20.8560739,1.12461538 20.7832969,0.867692308 20.7159781,0.649230769 L20.7032421,0.649230769 C20.6377428,0.867692308 20.5704241,1.13076923 20.4921888,1.35384615 L20.1483174,2.27692308 L21.292736,2.27692308 Z" id="形状" fill-rule="nonzero"></path>
                            <polygon id="路径" points="24.0619015 0.0984615385 24.8751847 0.0984615385 24.8751847 3.29076923 26.7055267 3.29076923 26.7055267 3.86615385 24.0619015 3.86615385"></polygon>
                            <path d="M33.3391518,3.75230769 C32.9746367,3.87814519 32.5827744,3.93738957 32.189275,3.92615385 C30.773762,3.92615385 29.9149932,3.17076923 29.9149932,2.02461538 C29.9149932,0.783076923 30.9338714,0.0338461538 32.2948016,0.0338461538 C32.6688091,0.0215897829 33.0414455,0.0788315306 33.3864569,0.201538462 L33.2045144,0.749230769 C32.9285224,0.649884975 32.6311284,0.600115059 32.3311902,0.603076923 C31.4214774,0.603076923 30.7701231,1.08461538 30.7701231,1.98769231 C30.7701231,2.81538462 31.3450616,3.34615385 32.3239124,3.34615385 C32.6273542,3.34994237 32.9286239,3.30234091 33.2099726,3.20615385 L33.3391518,3.75230769 Z" id="路径"></path>
                            <path d="M34.7619425,0.146153846 C35.1687851,0.0922771951 35.5800772,0.0660394669 35.9918741,0.0676923077 C36.6341313,0.0676923077 37.068974,0.156923077 37.3673598,0.375384615 C37.6236825,0.565228047 37.7647846,0.842869855 37.7512585,1.13076923 C37.7479137,1.55865266 37.4244125,1.93778679 36.9452531,2.07538462 L36.9452531,2.09230769 C37.2618331,2.19230769 37.4546922,2.45538462 37.5674966,2.82 C37.6543102,3.17698233 37.7716686,3.52816237 37.9186457,3.87076923 L37.0762517,3.87076923 C36.9465113,3.58222822 36.8466738,3.28469847 36.7778659,2.98153846 C36.6523256,2.48923077 36.4412722,2.33230769 35.9773187,2.32153846 L35.567948,2.32153846 L35.567948,3.87076923 L34.7619425,3.87076923 L34.7619425,0.146153846 Z M35.567948,1.81230769 L36.0500958,1.81230769 C36.5959234,1.81230769 36.9434337,1.56615385 36.9434337,1.19692308 C36.9434337,0.783076923 36.5995622,0.593846154 36.0701094,0.593846154 C35.9017692,0.589802321 35.733405,0.601150228 35.567948,0.627692308 L35.567948,1.81230769 Z" id="形状" fill-rule="nonzero"></path>
                            <path d="M40.1656361,3.86461538 L40.1656361,2.29384615 L38.7574008,0.0984615385 L39.6834884,0.0984615385 L40.2183995,1.06615385 C40.3712312,1.34615385 40.4822161,1.55846154 40.6022982,1.81538462 L40.6150342,1.81538462 C40.7278386,1.57538462 40.8533789,1.34 41.0043912,1.06615385 L41.5393023,0.0984615385 L42.461751,0.0984615385 L40.9807387,2.27846154 L40.9807387,3.86615385 L40.1656361,3.86461538 Z" id="路径"></path>
                            <path d="M43.5988919,0.146153846 C44.0095592,0.0890048305 44.425409,0.0627482395 44.8415595,0.0676923077 C45.4365116,0.0676923077 45.8731737,0.173846154 46.1570041,0.375384615 C46.4431012,0.583882298 46.6033909,0.889970134 46.5936662,1.20923077 C46.6123344,1.52714673 46.4731748,1.83721547 46.2097674,2.06461538 C45.8859097,2.33846154 45.3764706,2.46769231 44.8015321,2.46769231 C44.668779,2.46975015 44.5360661,2.46202868 44.4048974,2.44461538 L44.4048974,3.86461538 L43.5988919,3.86461538 L43.5988919,0.146153846 Z M44.4048974,1.90153846 C44.5352857,1.92437111 44.6684808,1.93367054 44.8015321,1.92923077 C45.4092202,1.92923077 45.780383,1.67692308 45.780383,1.23538462 C45.780383,0.793846154 45.4365116,0.592307692 44.8706703,0.592307692 C44.713232,0.589718027 44.5559053,0.60106181 44.4012585,0.626153846 L44.4048974,1.90153846 Z" id="形状" fill-rule="nonzero"></path>
                            <polygon id="路径" points="48.8770451 0.672307692 47.6034473 0.672307692 47.6034473 0.0984615385 50.9693844 0.0984615385 50.9693844 0.673846154 49.6866895 0.673846154 49.6866895 3.86615385 48.8734063 3.86615385"></polygon>
                            <path d="M55.9928181,1.94461538 C55.9928181,3.20769231 55.0831053,3.92923077 53.8568126,3.92923077 C52.6305198,3.92923077 51.8063201,3.11846154 51.8063201,2.01076923 C51.8063201,0.853846154 52.6669083,0.0369230769 53.9223119,0.0369230769 C55.2250205,0.0338461538 55.9928181,0.867692308 55.9928181,1.94461538 Z M52.6669083,2 C52.6669083,2.76923077 53.1235841,3.38461538 53.9041176,3.38461538 C54.6846512,3.38461538 55.1340492,2.76923077 55.1340492,1.97538462 C55.1340492,1.26461538 54.7174008,0.590769231 53.9041176,0.590769231 C53.0908345,0.590769231 52.6669083,1.22 52.6669083,1.99692308 L52.6669083,2 Z" id="形状" fill-rule="nonzero"></path>
                            <path d="M63.4724761,1.94461538 C63.4724761,3.20769231 62.5627633,3.92923077 61.3364706,3.92923077 C60.1101778,3.92923077 59.2859781,3.11846154 59.2859781,2.01076923 C59.2859781,0.853846154 60.1465663,0.0369230769 61.4019699,0.0369230769 C62.7064979,0.0338461538 63.4724761,0.867692308 63.4724761,1.94461538 Z M60.1465663,2 C60.1465663,2.76923077 60.6032421,3.38461538 61.3837756,3.38461538 C62.1643092,3.38461538 62.6137073,2.76923077 62.6137073,1.97538462 C62.6137073,1.26461538 62.1970588,0.590769231 61.3837756,0.590769231 C60.5704925,0.590769231 60.1465663,1.22 60.1465663,1.99692308 L60.1465663,2 Z" id="形状" fill-rule="nonzero"></path>
                            <polygon id="路径" points="64.9025445 0.0984615385 67.475212 0.0984615385 67.475212 0.663076923 65.7158276 0.663076923 65.7158276 1.70307692 67.3533105 1.70307692 67.3533105 2.26769231 65.7158276 2.26769231 65.7158276 3.86769231 64.9025445 3.86769231"></polygon>
                            <polygon id="路径" points="68.9962517 0.0984615385 71.5725581 0.0984615385 71.5725581 0.663076923 69.8131737 0.663076923 69.8131737 1.70307692 71.4506566 1.70307692 71.4506566 2.26769231 69.8131737 2.26769231 69.8131737 3.86769231 68.9998906 3.86769231"></polygon>
                            <polygon id="路径" points="75.5752941 2.19230769 73.8959644 2.19230769 73.8959644 3.3 75.7736115 3.3 75.7736115 3.86461538 73.089959 3.86461538 73.089959 0.0984615385 75.6826402 0.0984615385 75.6826402 0.663076923 73.9032421 0.663076923 73.9032421 1.63692308 75.5752941 1.63692308"></polygon>
                            <path d="M77.2236936,0.146153846 C77.6305361,0.0922771951 78.0418282,0.0660394669 78.4536252,0.0676923077 C79.0958824,0.0676923077 79.530725,0.156923077 79.8291108,0.375384615 C80.0854336,0.565228047 80.2265357,0.842869855 80.2130096,1.13076923 C80.2096647,1.55865266 79.8861636,1.93778679 79.4070041,2.07538462 L79.4070041,2.09230769 C79.7235841,2.19230769 79.9164432,2.45538462 80.0292476,2.82 C80.1161048,3.17697336 80.2334622,3.52815075 80.3803967,3.87076923 L79.5398222,3.87076923 C79.4100381,3.58224045 79.3101995,3.28470746 79.2414364,2.98153846 C79.115896,2.48923077 78.9048427,2.33230769 78.4408892,2.32153846 L78.0315185,2.32153846 L78.0315185,3.87076923 L77.225513,3.87076923 L77.2236936,0.146153846 Z M78.029699,1.81230769 L78.5118468,1.81230769 C79.0576744,1.81230769 79.4051847,1.56615385 79.4051847,1.19692308 C79.4051847,0.783076923 79.0613133,0.593846154 78.5318605,0.593846154 C78.3635199,0.58979029 78.1951541,0.6011383 78.029699,0.627692308 L78.029699,1.81230769 Z" id="形状" fill-rule="nonzero"></path>
                            <polygon id="路径" points="82.5273187 0.0984615385 82.5273187 3.86769231 81.7140356 3.86769231 81.7140356 0.0984615385"></polygon>
                            <path d="M84.1884542,3.86461538 L84.1884542,0.0984615385 L85.1145417,0.0984615385 L86.2644186,1.71384615 C86.551798,2.11966488 86.8059016,2.54168201 87.0249384,2.97692308 L87.0376744,2.97692308 C86.9849111,2.47384615 86.9648974,1.98769231 86.9648974,1.41076923 L86.9648974,0.0984615385 L87.7181395,0.0984615385 L87.7181395,3.86769231 L86.877565,3.86769231 L85.7131327,2.20769231 C85.4164777,1.78901392 85.1491682,1.35596018 84.9125855,0.910769231 L84.8925718,0.910769231 C84.9253215,1.39692308 84.9325992,1.89538462 84.9325992,2.51538462 L84.9325992,3.86307692 L84.1884542,3.86461538 Z" id="路径"></path>
                            <path d="M92.9580848,3.69076923 C92.4968015,3.82833341 92.0116765,3.90008113 91.5225581,3.90307692 C90.769316,3.90307692 90.1998358,3.74153846 89.7759097,3.4 C89.3516691,3.03070775 89.1265237,2.5297147 89.1536662,2.01538462 C89.1536662,0.824615385 90.1579891,0.0584615385 91.6335431,0.0584615385 C92.0386468,0.0487207023 92.4417974,0.109463767 92.8179891,0.236923077 L92.6360465,0.790769231 C92.316653,0.675632427 91.9715001,0.620516328 91.624446,0.629230769 C90.6728865,0.629230769 90.0033379,1.10461538 90.0033379,1.98307692 C90.0033379,2.86153846 90.6255814,3.34769231 91.5498495,3.34769231 C91.7589869,3.35668055 91.9681252,3.32999725 92.1648153,3.26923077 L92.1648153,2.32923077 L91.3770041,2.32923077 L91.3770041,1.79076923 L92.9508071,1.79076923 L92.9580848,3.69076923 Z" id="路径"></path>
                            <polygon id="路径" points="99.1077428 2.19230769 97.4284131 2.19230769 97.4284131 3.3 99.3060602 3.3 99.3060602 3.86461538 96.61513 3.86461538 96.61513 0.0984615385 99.2078112 0.0984615385 99.2078112 0.663076923 97.4284131 0.663076923 97.4284131 1.63692308 99.1077428 1.63692308"></polygon>
                            <path d="M103.135951,3.86461538 L102.653803,3.11538462 C102.462763,2.82461538 102.335404,2.62307692 102.209863,2.40461538 L102.18985,2.40461538 C102.084323,2.62307692 101.964241,2.82461538 101.785937,3.11538462 L101.341997,3.86461538 L100.410451,3.86461538 L101.733174,1.95846154 L100.459576,0.0969230769 L101.392941,0.0969230769 L101.875089,0.873846154 C102.020643,1.10923077 102.12617,1.29384615 102.238974,1.50615385 L102.25171,1.50615385 C102.369973,1.27076923 102.462763,1.10307692 102.602859,0.873846154 L103.079549,0.0969230769 L104.012914,0.0969230769 L102.710205,1.94307692 L104.065677,3.87230769 L103.135951,3.86461538 Z" id="路径"></path>
                            <path d="M108.374077,3.75230769 C108.009561,3.87814519 107.617699,3.93738957 107.2242,3.92615385 C105.808687,3.92615385 104.949918,3.17076923 104.949918,2.02461538 C104.949918,0.783076923 105.968796,0.0338461538 107.329726,0.0338461538 C107.703734,0.0215897829 108.07637,0.0788315306 108.421382,0.201538462 L108.239439,0.749230769 C107.963447,0.649884975 107.666053,0.600115059 107.366115,0.603076923 C106.456402,0.603076923 105.805048,1.08461538 105.805048,1.98769231 C105.805048,2.81538462 106.379986,3.34615385 107.358837,3.34615385 C107.662279,3.34994237 107.963549,3.30234091 108.244897,3.20615385 L108.374077,3.75230769 Z" id="路径"></path>
                            <polygon id="路径" points="110.61015 0.0984615385 110.61015 1.60769231 112.495075 1.60769231 112.495075 0.0984615385 113.308358 0.0984615385 113.308358 3.86769231 112.495075 3.86769231 112.495075 2.20461538 110.61015 2.20461538 110.61015 3.86461538 109.796867 3.86461538 109.796867 0.0984615385"></polygon>
                            <path d="M115.861012,2.79692308 L115.477114,3.86461538 L114.638358,3.86461538 L116.066607,0.0953846154 L117.105499,0.0953846154 L118.56104,3.86461538 L117.687715,3.86461538 L117.283803,2.79692308 L115.861012,2.79692308 Z M117.13461,2.27692308 L116.783461,1.35384615 C116.697948,1.12461538 116.625171,0.867692308 116.557852,0.649230769 L116.545116,0.649230769 C116.479617,0.867692308 116.412298,1.13076923 116.334063,1.35384615 L115.990192,2.27692308 L117.13461,2.27692308 Z" id="形状" fill-rule="nonzero"></path>
                            <path d="M119.903776,3.86461538 L119.903776,0.0984615385 L120.829863,0.0984615385 L121.97974,1.71384615 C122.26712,2.11966488 122.521223,2.54168201 122.74026,2.97692308 L122.752996,2.97692308 C122.700233,2.47384615 122.680219,1.98769231 122.680219,1.41076923 L122.680219,0.0984615385 L123.426183,0.0984615385 L123.426183,3.86769231 L122.585609,3.86769231 L121.424815,2.20461538 C121.12816,1.785937 120.860851,1.35288325 120.624268,0.907692308 L120.604254,0.907692308 C120.637004,1.39384615 120.644282,1.89230769 120.644282,2.51230769 L120.644282,3.86 L119.903776,3.86461538 Z" id="路径"></path>
                            <path d="M128.673406,3.69076923 C128.212123,3.82833341 127.726998,3.90008113 127.23788,3.90307692 C126.484637,3.90307692 125.915157,3.74153846 125.491231,3.4 C125.066991,3.03070775 124.841845,2.5297147 124.868988,2.01538462 C124.868988,0.824615385 125.873311,0.0584615385 127.348865,0.0584615385 C127.753968,0.0487207023 128.157119,0.109463767 128.533311,0.236923077 L128.351368,0.790769231 C128.031975,0.675632427 127.686822,0.620516328 127.339767,0.629230769 C126.388208,0.629230769 125.718659,1.10461538 125.718659,1.98307692 C125.718659,2.86153846 126.340903,3.34769231 127.265171,3.34769231 C127.474308,3.35668055 127.683447,3.32999725 127.880137,3.26923077 L127.880137,2.32923077 L127.092326,2.32923077 L127.092326,1.79076923 L128.666129,1.79076923 L128.673406,3.69076923 Z" id="路径"></path>
                            <polygon id="路径" points="132.727086 2.19230769 131.047756 2.19230769 131.047756 3.3 132.925404 3.3 132.925404 3.86461538 130.234473 3.86461538 130.234473 0.0984615385 132.827155 0.0984615385 132.827155 0.663076923 131.047756 0.663076923 131.047756 1.63692308 132.727086 1.63692308"></polygon>
                        </g>
                        <rect id="矩形" opacity="0.5" x="0" y="3" width="138" height="38"></rect>
                        <g id="分组" transform="translate(142.000000, 0.000000)" fill="#FFFFFF">
                            <polygon id="路径" points="1.5872 0.595384615 1.0624 0.595384615 1.0624 2.94692308 0.6016 2.94692308 0.6016 0.595384615 0.0864 0.595384615 0.0864 0.0830769231 1.5872 0.0830769231"></polygon>
                            <polygon id="路径" points="2.8224 2.08846154 2.8224 2.08846154 3.2704 0.0853846154 3.88 0.0853846154 3.88 2.94692308 3.4208 2.94692308 3.4208 1.10076923 3.4208 1.10076923 2.9824 2.94692308 2.6736 2.94692308 2.2448 1.12846154 2.2368 1.12846154 2.2368 2.94461538 1.7728 2.94461538 1.7728 0.0830769231 2.376 0.0830769231"></polygon>
                        </g>
                    </g>
                </g>
            </g>
        </g>
    </g>
</svg>