<?xml version="1.0" encoding="UTF-8"?>
<svg width="22px" height="22px" viewBox="0 0 22 22" version="1.1" xmlns="http://www.w3.org/2000/svg" xmlns:xlink="http://www.w3.org/1999/xlink">
    <!-- Generator: Sketch 52.4 (67378) - http://www.bohemiancoding.com/sketch -->
    <title>MARKETS-蓝色</title>
    <desc>Created with Sketch.</desc>
    <g id="GCOX-确定版" stroke="none" stroke-width="1" fill="none" fill-rule="evenodd">
        <g id="MARKETS" transform="translate(-542.000000, -30.000000)">
            <g id="MARKETS-白色" transform="translate(542.000000, 30.000000)">
                <rect id="矩形" fill="#D8D8D8" fill-rule="nonzero" opacity="0" x="0" y="0" width="22" height="22"></rect>
                <path d="M12.9131749,20.5055469 C12.8597896,20.5259539 12.8026834,20.5373881 12.7441282,20.5386216 C12.173946,20.6395344 11.5959269,20.6897168 11.0168546,20.6885718 C10.4300872,20.689732 9.84440128,20.6381916 9.26685457,20.5345718 L9.25285457,20.5345718 C7.13011594,20.1254902 5.20639789,19.0205992 3.78417275,17.3976012 C3.61514771,17.3509952 3.47840662,17.2183198 3.43026718,17.044629 C2.05587399,15.3268934 1.30355703,13.1912177 1.30085457,10.9865718 C1.30085457,10.9441238 1.30603026,10.9028847 1.31578499,10.8634511 C1.34617763,8.67524711 2.11450507,6.56157383 3.49560365,4.86490361 C3.51678168,4.81587748 3.54596582,4.76975436 3.58285457,4.72857176 C5.01685348,3.02198954 6.99405358,1.86038448 9.18285457,1.43857176 C9.27473819,1.421748 9.36536352,1.43092475 9.44716205,1.46087613 C10.4623939,1.29546129 11.49743,1.29303748 12.5132422,1.45360471 C12.5671403,1.43875975 12.6238813,1.43272361 12.6813649,1.4365302 C12.7772929,1.4428826 12.8675564,1.47613355 12.943114,1.53023307 C14.9682021,1.95948884 16.8024976,3.02425648 18.1791494,4.56776094 C18.1797423,4.56794048 18.1803348,4.5681211 18.180927,4.56830279 C18.3727714,4.59888609 18.5370563,4.73836355 18.5916273,4.93479856 C19.9302315,6.61699146 20.6740305,8.69716941 20.7039242,10.8494511 C20.7136789,10.8888847 20.7188546,10.9301238 20.7188546,10.9725718 C20.7161603,13.1705741 19.9683625,15.3000211 18.6018501,17.0150886 C18.5730597,17.1997038 18.4468668,17.3471175 18.2820429,17.4103124 C16.8792912,18.9993177 14.9940438,20.0872421 12.9131749,20.5055469 Z M13.4379492,16.7119317 C11.8406718,16.5885492 10.2361712,16.5899739 8.63906062,16.716206 C8.93924869,17.7022927 9.31525264,18.6638876 9.76379202,19.592363 C10.609861,19.715594 11.4695843,19.713357 12.3151576,19.5856522 C12.7629153,18.6579126 13.1382695,17.6971382 13.4379492,16.7119317 Z M13.6285238,19.2650549 C14.9106662,18.8579584 16.0820615,18.1583479 17.0490973,17.2207872 C16.1968725,17.0490798 15.3376043,16.9140014 14.4736612,16.8159426 C14.2425698,17.6491261 13.9602962,18.4670456 13.6285238,19.2650549 Z M14.3975987,5.1858979 C15.2950176,5.08801154 16.1875278,4.95020313 17.072479,4.77290967 C16.0770863,3.81794722 14.8688738,3.11386397 13.5488045,2.71839279 C13.8825282,3.52230013 14.1660329,4.34638418 14.3975987,5.1858979 Z M12.3301667,2.44785517 C11.4402307,2.31014929 10.5342031,2.31176201 9.64464399,2.45269332 C9.20797736,3.36224298 8.84081278,4.30337431 8.54622383,5.2680038 C10.1705576,5.39834874 11.8026527,5.39957686 13.4271328,5.27168816 C13.1334122,4.30417106 12.7667248,3.36017897 12.3301667,2.44785517 Z M14.7336189,15.8276192 C15.773317,15.9524156 16.8061696,16.1292164 17.8282908,16.3573739 C19.0105041,14.8590111 19.6677339,13.0116936 19.6959093,11.1005474 C19.6873005,11.0634694 19.6828546,11.0252498 19.6828546,10.9865718 C19.6827922,9.05085686 19.0368465,7.17393141 17.8526959,5.65080509 C16.8140995,5.88151508 15.7644689,6.05921535 14.7078786,6.18322687 C15.063503,7.7118127 15.2482572,9.2756812 15.258412,10.8460439 C15.2768383,10.8988095 15.2868546,10.9555209 15.2868546,11.0145718 C15.2871266,12.6354676 15.1013487,14.2503622 14.7336189,15.8276192 Z M13.7029634,15.7171822 C14.067163,14.2065281 14.2556988,12.6584508 14.2645443,11.1037369 C14.2555933,11.0661395 14.2508546,11.026909 14.2508546,10.9865718 C14.2488346,9.39560949 14.0586258,7.81097867 13.6845408,6.26565435 C12.795312,6.33931496 11.9060833,6.38057176 11.0168546,6.38057176 C10.1260074,6.38057176 9.22480838,6.38057176 8.33106041,6.28265633 C7.96884687,7.78463392 7.78028882,9.32361581 7.76934402,10.8693416 C7.77818037,10.9069852 7.78285457,10.9462326 7.78285457,10.9865718 C7.78488153,12.5830528 7.97640526,14.1731584 8.35306791,15.7235691 C10.1330667,15.5712044 11.9226955,15.5690754 13.7029634,15.7171822 Z M8.4517633,19.2760573 C8.11358718,18.4639457 7.8266903,17.6311822 7.59284818,16.7826674 C6.72070559,16.8802883 5.85328163,17.0156273 4.99301152,17.1882829 C5.96675061,18.146914 7.15220247,18.8618023 8.4517633,19.2760573 Z M7.31333105,15.7963616 C6.94610476,14.2201386 6.76058277,12.6063517 6.76085457,10.9865718 C6.76058161,9.35988738 6.94768973,7.73924724 7.31803694,6.1566277 C6.27117692,6.03015122 5.23128883,5.85094571 4.20234073,5.61967253 C2.9957157,7.15077402 2.33691753,9.04569327 2.33685457,11.0005718 C2.33590874,11.0351017 2.33142819,11.0691688 2.32362785,11.1022923 C2.34896601,13.002631 2.99630735,14.8404812 4.16338004,16.3356461 C5.20357432,16.1024536 6.25492405,15.9224644 7.31333105,15.7963616 Z M8.45388906,2.65311779 C7.12428969,3.05200999 5.90898198,3.76381404 4.91054988,4.72873652 C5.79436551,4.91039573 6.68588377,5.05261938 7.58245683,5.15497088 C7.82003475,4.30334357 8.1111122,3.46773641 8.45388906,2.65311779 Z" id="合并形状" fill="#FFFFFF"></path>
            </g>
        </g>
    </g>
</svg>