<?xml version="1.0" encoding="UTF-8"?>
<svg width="14px" height="14px" viewBox="0 0 14 14" version="1.1" xmlns="http://www.w3.org/2000/svg" xmlns:xlink="http://www.w3.org/1999/xlink">
    <!-- Generator: Sketch 52.4 (67378) - http://www.bohemiancoding.com/sketch -->
    <title>medium</title>
    <desc>Created with Sketch.</desc>
    <g id="GCOX-确定版" stroke="none" stroke-width="1" fill="none" fill-rule="evenodd">
        <g id="Home" transform="translate(-677.000000, -3065.000000)">
            <g id="底部" transform="translate(0.000000, 2928.000000)">
                <g id="分组-32" transform="translate(521.000000, 35.000000)">
                    <g id="分组-31" transform="translate(0.000000, 102.000000)">
                        <g id="medium" transform="translate(156.000000, 0.000000)">
                            <rect id="矩形" fill="#000000" opacity="0" x="0" y="0" width="14" height="14"></rect>
                            <path d="M1.54158333,3.50601155 C1.55779042,3.34956085 1.49681062,3.19492788 1.37745833,3.08982227 L0.164125,1.65651736 L0.164125,1.44258334 L3.9325,1.44258334 L6.84558333,7.70400236 L9.40658333,1.44258334 L13,1.44258334 L13,1.65651736 L11.961625,2.63169555 C11.8721731,2.69861414 11.8277811,2.80850215 11.84625,2.91729483 L11.84625,10.0838194 C11.8279934,10.1924369 11.8723632,10.3020658 11.961625,10.3688878 L12.9745417,11.344066 L12.9745417,11.558 L7.87745833,11.558 L7.87745833,11.344066 L8.92666667,10.3449994 C9.02958334,10.2441372 9.02958334,10.2144094 9.02958333,10.0594001 L9.02958333,4.26725571 L6.11,11.5335807 L5.71620833,11.5335807 L2.31725,4.26725571 L2.31725,9.13730727 C2.28908333,9.34221678 2.35841667,9.54818801 2.50520833,9.69629618 L3.87020833,11.3207084 L3.87020833,11.5341116 L0,11.5341116 L0,11.3201776 L1.365,9.69576532 C1.51125,9.54818801 1.57625,9.34009336 1.54158333,9.13730727 L1.54158333,3.50601155 Z" id="路径" fill="#FFFFFF"></path>
                        </g>
                    </g>
                </g>
            </g>
        </g>
    </g>
</svg>