<?xml version="1.0" encoding="UTF-8"?>
<svg width="14px" height="14px" viewBox="0 0 14 14" version="1.1" xmlns="http://www.w3.org/2000/svg" xmlns:xlink="http://www.w3.org/1999/xlink">
    <!-- Generator: Sketch 52.4 (67378) - http://www.bohemiancoding.com/sketch -->
    <title>twitter</title>
    <desc>Created with Sketch.</desc>
    <g id="GCOX-确定版" stroke="none" stroke-width="1" fill="none" fill-rule="evenodd">
        <g id="Home" transform="translate(-599.000000, -3065.000000)">
            <g id="底部" transform="translate(0.000000, 2928.000000)">
                <g id="分组-32" transform="translate(521.000000, 35.000000)">
                    <g id="分组-31" transform="translate(0.000000, 102.000000)">
                        <g id="twitter" transform="translate(78.000000, 0.000000)">
                            <rect id="矩形" fill="#000000" opacity="0" x="0" y="0" width="14" height="14"></rect>
                            <path d="M13.156,3.1875 C12.8105248,3.69040316 12.3826888,4.13142417 11.8905,4.492 C11.8985,4.6015 11.8985,4.711 11.8985,4.81999999 C11.8985,8.15599999 9.35950001,11.9995 4.719,11.9995 C3.28950001,11.9995 1.961,11.5855 0.843999994,10.8665 C1.04699999,10.89 1.2425,10.898 1.4535,10.898 C2.633,10.898 3.719,10.4995 4.5865,9.82 C3.50699349,9.80037876 2.55909812,9.09734129 2.227,8.07 C2.3835,8.0935 2.5395,8.10899999 2.7035,8.10900001 C2.92999999,8.10900001 3.15649999,8.07750001 3.36749999,8.023 C2.18935071,7.78464472 1.34275176,6.74851805 1.344,5.5465 L1.344,5.515 C1.6936843,5.7100076 2.08442381,5.81981208 2.48450001,5.8355 C1.78123357,5.367601 1.35890802,4.57869688 1.3595,3.73400001 C1.3595,3.26500001 1.48449999,2.83550001 1.7035,2.4605 C2.98526082,4.03824339 4.87633576,4.99795574 6.9065,5.101 C6.8660464,4.91096305 6.84510444,4.71729183 6.844,4.523 C6.84373459,3.85364486 7.10951735,3.21162854 7.58282294,2.73832295 C8.05612854,2.26501735 8.69814486,1.99923459 9.3675,1.9995 C10.0660158,1.9976314 10.7338437,2.28635329 11.211,2.7965 C11.7760869,2.68755817 12.3179678,2.48132877 12.8125,2.18700001 C12.6243274,2.77014061 12.2298165,3.26456825 11.703,3.57749999 C12.211,3.52299999 12.703,3.38199999 13.156,3.187 L13.156,3.1875 Z" id="路径" fill="#FFFFFF"></path>
                        </g>
                    </g>
                </g>
            </g>
        </g>
    </g>
</svg>