<?xml version="1.0" encoding="UTF-8"?>
<svg width="14px" height="14px" viewBox="0 0 14 14" version="1.1" xmlns="http://www.w3.org/2000/svg" xmlns:xlink="http://www.w3.org/1999/xlink">
    <!-- Generator: Sketch 52.4 (67378) - http://www.bohemiancoding.com/sketch -->
    <title>vimeo2</title>
    <desc>Created with Sketch.</desc>
    <g id="GCOX-确定版" stroke="none" stroke-width="1" fill="none" fill-rule="evenodd">
        <g id="Home" transform="translate(-560.000000, -3094.000000)">
            <g id="底部" transform="translate(0.000000, 2928.000000)">
                <g id="分组-32" transform="translate(521.000000, 35.000000)">
                    <g id="分组-31" transform="translate(0.000000, 102.000000)">
                        <g id="vimeo2" transform="translate(39.000000, 29.000000)">
                            <rect id="矩形" fill="#000000" opacity="0" x="0" y="0" width="14" height="14"></rect>
                            <path d="M10.99975,1 L3.00025,1 C1.9,1 1,1.900375 1,3.00025 L1,10.99975 C1,12.10075 1.9,13 3.00025,13 L10.99975,13 C12.1,13 13,12.10075 13,10.99975 L13,3.00025 C13,1.900375 12.1,1 10.99975,1 Z M10.27598,5.61478602 C9.88493289,7.77921758 7.69934431,9.61199652 7.04219348,10.0309071 C6.38467408,10.4494556 5.78501934,9.86327045 5.56756618,9.42010145 C5.31878502,8.91429502 4.57244153,6.17345412 4.37710225,5.94643863 C4.18176297,5.71978521 3.59537655,6.17345412 3.59537655,6.17345412 L3.31084462,5.80704315 C3.31084462,5.80704315 4.50167711,4.41019187 5.4076091,4.23567598 C6.36808867,4.05066017 6.36698298,5.68466479 6.59770447,6.59200261 C6.82105467,7.469651 6.97142906,7.97183678 7.16639978,7.97183678 C7.36173906,7.97183678 7.73509509,7.48232332 8.14383332,6.73212222 C8.55330868,5.98119698 8.12614222,5.31752969 7.32635685,5.78966398 C7.646271,3.90402337 10.6670271,3.45071652 10.27598,5.61478602 Z" id="形状" fill="#FFFFFF" fill-rule="nonzero"></path>
                        </g>
                    </g>
                </g>
            </g>
        </g>
    </g>
</svg>