<?xml version="1.0" encoding="UTF-8"?>
<svg width="14px" height="14px" viewBox="0 0 14 14" version="1.1" xmlns="http://www.w3.org/2000/svg" xmlns:xlink="http://www.w3.org/1999/xlink">
    <!-- Generator: Sketch 52.4 (67378) - http://www.bohemiancoding.com/sketch -->
    <title>youtube-play</title>
    <desc>Created with Sketch.</desc>
    <g id="GCOX-确定版" stroke="none" stroke-width="1" fill="none" fill-rule="evenodd">
        <g id="Home" transform="translate(-521.000000, -3094.000000)">
            <g id="底部" transform="translate(0.000000, 2928.000000)">
                <g id="分组-32" transform="translate(521.000000, 35.000000)">
                    <g id="分组-31" transform="translate(0.000000, 102.000000)">
                        <g id="youtube-play" transform="translate(0.000000, 29.000000)">
                            <rect id="矩形" fill="#000000" opacity="0" x="0" y="0" width="14" height="14"></rect>
                            <path d="M5.55465053,8.80390244 L9.33196175,6.85280781 L5.55465053,4.87823609 L5.55465053,8.80390244 Z M6.99874029,2.07597268 C9.94136663,2.07597268 11.8924613,2.2163356 11.8924613,2.21633562 C12.1656944,2.24780488 12.7666076,2.24780488 13.2970896,2.8097561 C13.2970896,2.8097561 13.7261705,3.2313444 13.8510486,4.19889952 C13.9994037,5.33079415 13.9914115,6.46218928 13.9914115,6.46218926 L13.9914115,7.52365268 C13.9914115,7.52365268 13.9994037,8.65554731 13.8510486,9.78694244 C13.7261705,10.7470049 13.2970896,11.1760859 13.2970896,11.1760859 C12.7666076,11.7300449 12.1651949,11.7300449 11.8924613,11.7615141 C11.8924613,11.7615141 9.94136663,11.9098693 6.99874029,11.9098693 C3.361792,11.8784 2.24538224,11.7695063 2.24538224,11.7695063 C1.93318712,11.7150595 1.23087298,11.7305444 0.69989151,11.1760859 C0.69989151,11.1760859 0.270810537,10.7470049 0.14593249,9.78694244 C-0.00242262829,8.65504781 0.00556955512,7.52365268 0.00556955512,7.52365268 L0.00556955512,6.46218926 C0.00556955512,6.46218926 -0.00242264195,5.33029463 0.14593249,4.19889952 C0.270810537,3.23134438 0.69989151,2.8097561 0.69989151,2.8097561 C1.23037346,2.24780488 1.83178614,2.24780488 2.1045198,2.21633562 C2.1045198,2.21633562 4.05561444,2.07597269 6.99824078,2.07597268 L6.99874029,2.07597268 Z" id="形状" fill="#FFFFFF" fill-rule="nonzero"></path>
                        </g>
                    </g>
                </g>
            </g>
        </g>
    </g>
</svg>